<?xml version="1.0" encoding="UTF-8"?>
<svg id="Camada_1" data-name="Camada 1" xmlns="http://www.w3.org/2000/svg" viewBox="0 0 1000 1000">
  <defs>
    <style>
      .cls-1 {
        fill: #bcff1c;
      }

      .cls-2 {
        fill: #191919;
      }
    </style>
  </defs>
  <g>
    <path class="cls-1" d="M340.61,279.66c1.51-3.4,6.59-2.3,6.56,1.41l-.37,57.01-.6,72.33-82.57,42.49,34.64-77.92,5.82-13.14,17.56-39.5,18.96-42.68Z"/>
    <path class="cls-1" d="M193.02,546.57l-34.73,78.15-5.85,13.14-17.3,38.93-19.36,43.56c-1.5,3.39-6.56,2.31-6.56-1.39v-133.35l1.14,3.69,82.66-42.71Z"/>
    <path class="cls-1" d="M193.02,546.57l-34.73,78.15-5.85,13.14-17.3,38.93c-9.06-4.77-17.75-10.24-25.92-16.32-50.88-37.75-83.23-99.05-80.92-167.79,3.47-103.51,86.88-188.15,190.33-193.1,26.87-1.29,52.67,2.75,76.4,11.12l-31.68,35.65h-.03l-11,12.37-143.89,161.89c-4.07,4.58-.82,11.83,5.31,11.83h74.61c5.15,0,8.59,5.28,6.52,9.99l-1.84,4.13Z"/>
    <path class="cls-1" d="M428.52,507.29c-3.99,105.88-91.44,191.1-197.38,192.5-24.26.32-47.55-3.67-69.16-11.3l31.23-35.11,11.04-12.4,143.89-161.89c4.07-4.58.82-11.83-5.31-11.83h-74.65c-5.14,0-8.58-5.29-6.49-9.99l1.94-4.36,34.64-77.92,5.82-13.14,17.56-39.5c8.81,4.61,17.21,9.89,25.16,15.74,51.57,37.83,84.33,99.78,81.72,169.2Z"/>
  </g>
  <g>
    <path class="cls-2" d="M474.48,438.57h31.77c.63,8.78,5.64,15.68,18.82,15.68,8.78,0,14.84-2.93,14.84-10.24s-9.62-9.41-23.83-13.59c-17.98-5.23-31.78-12.54-31.78-31.57,0-23.2,19.65-35.75,46.2-35.75,23.62,0,44.11,10.03,45.57,34.28h-30.73c-.84-7.53-6.48-12.54-16.1-12.54-6.9,0-14.01,2.51-14.01,8.99s8.15,8.36,23.21,12.54c16.72,4.81,33.03,12.12,33.03,32.19,0,24.88-17.98,38.05-47.04,38.05-25.08,0-48.92-11.29-49.96-38.05Z"/>
    <path class="cls-2" d="M571.91,433.14l12.75-66.89h33.45l-12.12,62.29c-2.3,12.13.63,20.28,11.71,20.28s19.65-8.78,22.58-23.41l11.29-59.16h33.45l-20.69,107.03h-31.98l3.14-16.1h-.63c-7.94,11.71-18.19,19.23-33.03,19.23-22.58,0-35.33-15.89-29.89-43.27Z"/>
    <path class="cls-1" d="M711.55,366.24h11.08l-2.51,13.8h.42c7.94-10.03,18.81-16.93,32.82-16.93,23.83,0,37.21,20.07,37.21,46.62,0,31.57-16.09,66.89-52.47,66.89-13.8,0-25.29-5.64-31.35-17.35h-.63l-9.62,49.33h-45.71l60.77-142.36ZM756.29,412.23c0-11.08-4.18-22.58-17.56-22.58-17.56,0-26.97,21.11-26.97,38.26,0,11.5,5.23,23.21,19.02,23.21,18.61,0,25.5-21.95,25.5-38.88Z"/>
    <path class="cls-1" d="M818.59,428.54c.21,13.38,4.18,23.62,19.44,23.62,8.16,0,15.05-3.34,18.4-10.87h33.03c-6.69,20.69-25.29,35.12-52.89,35.12-29.05,0-51-16.52-51-49.34s23.83-63.97,59.16-63.97c12.33,0,21.12,2.51,28.64,7.11,16.93,10.66,22.58,31.78,18.61,58.32h-73.37ZM821.31,408.26h40.14c.42-11.5-4.39-21.11-17.14-21.11-10.66,0-19.23,7.94-22.99,21.11Z"/>
    <path class="cls-1" d="M904.09,366.24h32.19l-3.55,17.56h.63c7.73-12.55,17.56-19.23,30.94-19.23,3.55,0,6.27.42,7.53.84l-5.85,30.1h-.63c-21.53-3.13-34.49,5.23-39.51,30.94l-8.99,46.83h-33.45l20.69-107.03Z"/>
    <path class="cls-1" d="M479.29,587.77c0-35.12,24.04-64.18,61.25-64.18,27.38,0,51.43,15.89,51.63,48.71,0,35.54-23.83,64.59-61.25,64.59-27.18,0-51.63-16.1-51.63-49.13ZM558.31,571.26c0-12.33-5.02-23.83-18.81-23.83-19.23,0-26.76,24.67-26.55,41.81,0,12.75,4.81,23.83,18.61,23.83,19.44,0,26.97-24.25,26.76-41.81Z"/>
    <path class="cls-1" d="M587.58,590.07c0-33.03,19.44-66.69,54.14-66.69,14.43,0,24.25,6.27,30.1,16.93h.63l10.87-56.23h47.38l-63.69,149.47h-11.08l2.3-12.33h-.42c-6.9,9.2-17.14,15.68-30.31,15.68-24.25,0-40.14-18.4-39.93-46.83ZM666.6,572.93c0-12.75-5.44-24.04-18.82-24.04-17.98,0-25.71,21.74-25.71,38.67,0,12.12,4.39,22.99,17.98,22.99,17.77,0,26.55-20.91,26.55-37.63Z"/>
    <path class="cls-2" d="M698.8,590.07c0-33.03,19.44-66.69,54.14-66.69,14.43,0,24.25,6.27,30.1,16.93h.63l10.87-56.23h33.45l-28.85,149.47h-31.98l2.3-12.33h-.42c-6.9,9.2-17.14,15.68-30.31,15.68-24.25,0-40.14-18.4-39.93-46.83ZM777.82,572.93c0-12.75-5.44-24.04-18.82-24.04-17.98,0-25.71,21.74-25.71,38.67,0,12.12,4.39,22.99,17.98,22.99,17.77,0,26.55-20.91,26.55-37.63Z"/>
    <path class="cls-2" d="M805,598.85h31.77c.63,8.78,5.64,15.68,18.82,15.68,8.78,0,14.84-2.93,14.84-10.24s-9.62-9.41-23.83-13.59c-17.98-5.23-31.78-12.54-31.78-31.57,0-23.2,19.65-35.75,46.2-35.75,23.62,0,44.11,10.03,45.57,34.28h-30.73c-.84-7.53-6.48-12.54-16.1-12.54-6.9,0-14.01,2.51-14.01,8.99s8.15,8.36,23.21,12.54c16.72,4.81,33.03,12.12,33.03,32.19,0,24.88-17.98,38.05-47.04,38.05-25.08,0-48.92-11.29-49.96-38.05Z"/>
  </g>
</svg>